# xmcd
#
# Track frame offsets:
# 150
# 6291
# 21868
# 39384
# 60366
# 82192
# 103701
# 123523
# 145009
# 168626
# 189745
# 209896
# 227890
# 234907
# 248966
# 267992
#
# Disc length: 4098 seconds
#
#
# Revision: 6
# Processed by: cddbd v1.5.1PL0 Copyright (c) Steve Scherf et al.
# Submitted via: FreeRIP 2.942 
#
DISCID=e4100010
DTITLE=Jill Scott - Beautifully Human
DYEAR=2004
DGENRE=R&B
TTITLE0=Warm Up
TTITLE1=I'm Not Afraid
TTITLE2=Golden
TTITLE3=The Fact Is (I Need You)
TTITLE4=Spring Summer Feeling
TTITLE5=Cross My Mind
TTITLE6=Bedda At Home
TTITLE7=Talk To Me
TTITLE8=Family Reunion
TTITLE9=Can't Explain (42nd Street Happenstance)
TTITLE10=Whatever
TTITLE11=Not Like Crazy
TTITLE12=Nothing (Interlude)
TTITLE13=Rasool
TTITLE14=My Petition
TTITLE15=I Keep
EXTD=Updated and submitted by Slice!! in Detroit YEAR: 2004
EXTT0=
EXTT1=
EXTT2=
EXTT3=
EXTT4=
EXTT5=
EXTT6=
EXTT7=
EXTT8=
EXTT9=
EXTT10=
EXTT11=
EXTT12=
EXTT13=
EXTT14=
EXTT15=
PLAYORDER=
